<?xml version="1.0" standalone="no"?>
<!DOCTYPE svg PUBLIC "-//W3C//DTD SVG 1.1//EN" "http://www.w3.org/Graphics/SVG/1.1/DTD/svg11.dtd" >
<svg xmlns="http://www.w3.org/2000/svg" xmlns:xlink="http://www.w3.org/1999/xlink" version="1.1">
<metadata></metadata>
<defs>
<font id="gotham_narrowbold" horiz-adv-x="1122" >
<font-face units-per-em="2048" ascent="1638" descent="-410" />
<missing-glyph horiz-adv-x="458" />
<glyph unicode="&#xfb01;" horiz-adv-x="1234" d="M51 852v238h111v73q0 164 82 246t239 82q97 0 181 -25v-239q-63 18 -107 18q-106 0 -106 -112v-43h213v-238h-211v-852h-291v852h-111zM811 1214v265h303v-265h-303zM817 0v1098h291v-1098h-291z" />
<glyph unicode="&#xfb02;" horiz-adv-x="1234" d="M51 852v238h111v73q0 164 82 246t239 82q97 0 181 -25v-239q-63 18 -107 18q-106 0 -106 -112v-43h213v-238h-211v-852h-291v852h-111zM817 0v1479h291v-1479h-291z" />
<glyph unicode="&#xfb03;" horiz-adv-x="1921" d="M51 852v238h111v73q0 164 82 246t239 82q97 0 181 -25v-239q-63 18 -107 18q-106 0 -106 -112v-43h211v-238h-209v-852h-291v852h-111zM741 852v238h109v73q0 167 82 246q79 82 239 82q97 0 181 -25v-239q-63 18 -107 18q-108 0 -108 -112v-43h213v-238h-209v-852h-291 v852h-109zM1497 1214v265h301v-265h-301zM1503 0v1098h289v-1098h-289z" />
<glyph unicode="&#xfb04;" horiz-adv-x="1921" d="M51 852v238h111v73q0 164 82 246t239 82q97 0 181 -25v-239q-63 18 -107 18q-106 0 -106 -112v-43h211v-238h-209v-852h-291v852h-111zM741 852v238h109v73q0 167 82 246q79 82 239 82q97 0 181 -25v-239q-63 18 -107 18q-108 0 -108 -112v-43h213v-238h-209v-852h-291 v852h-109zM1503 0v1479h289v-1479h-289z" />
<glyph horiz-adv-x="0" />
<glyph horiz-adv-x="682" />
<glyph unicode=" "  horiz-adv-x="458" />
<glyph unicode="&#x09;" horiz-adv-x="458" />
<glyph unicode="&#xa0;" horiz-adv-x="458" />
<glyph unicode="!" horiz-adv-x="602" d="M129 1393v41h344v-41l-94 -918h-158zM141 0v315h318v-315h-318z" />
<glyph unicode="&#x22;" horiz-adv-x="958" d="M109 780l26 654h316v-13l-203 -641h-139zM551 780l24 654h316v-13l-203 -641h-137z" />
<glyph unicode="#" horiz-adv-x="1239" d="M57 313v250h176l48 316h-162v249h198l45 306h238l-45 -306h248l43 306h237l-45 -306h142v-249h-179l-45 -316h162v-250h-198l-46 -313h-237l47 313h-248l-47 -313h-237l45 313h-140zM465 557h258l49 328h-258z" />
<glyph unicode="$" horiz-adv-x="1144" d="M59 197l160 217q140 -123 273 -156v344q-203 85 -289 182.5t-86 253.5v2q0 158 100 262.5t268 129.5v131h199v-129q200 -28 352 -158l-149 -219q-122 90 -209 114v-329q204 -84 293.5 -186t89.5 -255v-4q0 -158 -103 -263t-274 -132v-209h-199v209q-252 30 -426 195z M401 1057q0 -42 19.5 -71.5t71.5 -59.5v250q-91 -30 -91 -117v-2zM678 256q98 30 98 129v2q0 41 -22 73.5t-76 63.5v-268z" />
<glyph unicode="%" horiz-adv-x="1585" d="M80 1067v16q0 159 88 263t227 104q138 0 225 -103t87 -260v-16q0 -157 -88 -260.5t-228 -103.5q-138 0 -224.5 101.5t-86.5 258.5zM219 0l508 762l426 672h215l-508 -762l-428 -672h-213zM281 1073q0 -85 31 -135.5t83 -50.5q53 0 82 49.5t29 134.5v10q0 85 -31.5 136 t-83.5 51q-53 0 -81.5 -50t-28.5 -135v-10zM879 346v16q0 158 87.5 261.5t227.5 103.5q138 0 224.5 -101.5t86.5 -258.5v-17q0 -159 -87 -262.5t-228 -103.5q-138 0 -224.5 102.5t-86.5 259.5zM1079 352q0 -85 31.5 -135.5t83.5 -50.5q53 0 82 49.5t29 134.5v10 q0 85 -31.5 136t-83.5 51t-81.5 -50.5t-29.5 -134.5v-10z" />
<glyph unicode="&#x26;" horiz-adv-x="1265" d="M57 385v6q0 258 260 402q-106 160 -106 299v6q0 149 107.5 254.5t285.5 105.5q166 0 268.5 -98.5t102.5 -247.5v-8q0 -131 -71 -222t-202 -155l172 -207q54 97 107 225l221 -96q-67 -178 -160 -321l183 -209l-215 -148l-138 156q-167 -147 -374 -147q-190 0 -315.5 111.5 t-125.5 293.5zM352 399q0 -78 50 -126t130 -48q94 0 185 78l-246 301q-119 -75 -119 -201v-4zM477 1085q0 -46 18.5 -89.5t61.5 -102.5q83 39 122.5 87t39.5 112v4q0 58 -33 93.5t-86 35.5q-55 0 -89 -38t-34 -97v-5z" />
<glyph unicode="'" horiz-adv-x="522" d="M109 780l26 654h320v-13l-205 -641h-141z" />
<glyph unicode="(" horiz-adv-x="823" d="M111 588q0 615 530 874l115 -190q-189 -120 -274 -287t-85 -397q0 -228 85 -395t274 -287l-115 -191q-530 259 -530 873z" />
<glyph unicode=")" horiz-adv-x="823" d="M68 -94q189 120 273.5 286.5t84.5 395.5q0 230 -84.5 397t-273.5 287l114 190q531 -261 531 -874q0 -612 -531 -873z" />
<glyph unicode="*" horiz-adv-x="800" d="M82 1016l217 90l-217 90l84 147l184 -147l-33 242h166l-32 -242l184 147l84 -147l-217 -90l217 -90l-84 -146l-184 146l32 -240h-166l33 240l-184 -146z" />
<glyph unicode="+" horiz-adv-x="1153" d="M111 588v266h329v334h273v-334h329v-266h-329v-334h-273v334h-329z" />
<glyph unicode="," horiz-adv-x="544" d="M49 -211q104 15 151.5 70.5t39.5 140.5h-127v315h317v-264q0 -368 -356 -383z" />
<glyph unicode="-" horiz-adv-x="792" d="M96 494v282h600v-282h-600z" />
<glyph unicode="." horiz-adv-x="544" d="M113 0v315h317v-315h-317z" />
<glyph unicode="/" horiz-adv-x="950" d="M-45 -244l770 1860h246l-770 -1860h-246z" />
<glyph unicode="0" horiz-adv-x="1302" d="M92 702v27q0 329 153.5 529t407.5 200q252 0 404.5 -199t152.5 -528v-26q0 -329 -153.5 -529.5t-407.5 -200.5t-405.5 198.5t-151.5 528.5zM395 709q0 -221 70 -342t188 -121q117 0 185.5 120t68.5 341v18q0 221 -70.5 342t-187.5 121t-185.5 -119.5t-68.5 -341.5v-18z " />
<glyph unicode="1" horiz-adv-x="761" d="M43 1337l354 107h205v-1444h-293v1139l-219 -60z" />
<glyph unicode="2" horiz-adv-x="1116" d="M90 0v240l422 434q118 121 162.5 191.5t44.5 146.5q0 80 -48 125t-124 45q-72 0 -130.5 -40t-131.5 -130l-193 182q96 131 210.5 195.5t266.5 64.5q201 0 326 -113t125 -305v-4q0 -75 -16.5 -136t-57.5 -124t-92 -119.5t-139 -142.5l-240 -244h547v-266h-932z" />
<glyph unicode="3" horiz-adv-x="1105" d="M53 176l178 209q132 -139 289 -139q88 0 143.5 50.5t55.5 135.5v4q0 93 -75 144t-212 51h-86l-35 188l316 350h-498v265h862v-236l-336 -352q73 -15 134 -44t112.5 -76t81 -118.5t29.5 -161.5v-6q0 -206 -134.5 -335.5t-351.5 -129.5q-286 0 -473 201z" />
<glyph unicode="4" horiz-adv-x="1236" d="M53 510l674 932h260v-899h174v-248h-174v-295h-280v295h-617zM379 543h328v463z" />
<glyph unicode="5" d="M66 158l165 221q74 -64 141.5 -96.5t145.5 -32.5q100 0 159.5 56.5t59.5 154.5v2q0 93 -64.5 148t-166.5 55q-98 0 -197 -45l-166 108l41 705h785v-267h-539l-16 -260q82 21 159 21q94 0 174.5 -26t144 -79t100 -142t36.5 -206v-6q0 -226 -139.5 -360t-364.5 -134 q-262 0 -458 183z" />
<glyph unicode="6" horiz-adv-x="1196" d="M92 664v12q0 370 148.5 576t425.5 206q112 0 201.5 -33t179.5 -100l-144 -235q-123 96 -244 96q-53 0 -96.5 -19.5t-72.5 -52t-50 -77.5t-31.5 -92.5t-13.5 -100.5q130 86 269 86q91 0 169.5 -29t139.5 -84t96 -143t35 -199v-4q0 -144 -65 -257.5t-177.5 -176 t-251.5 -62.5q-216 0 -352 136q-81 84 -123.5 214t-42.5 339zM391 459q0 -101 57 -162t154 -61q99 0 155 60t56 161v4q0 99 -57 159t-156 60q-98 0 -153.5 -59t-55.5 -160v-2z" />
<glyph unicode="7" horiz-adv-x="1103" d="M106 1165v269h916v-222l-549 -1212h-323l550 1165h-594z" />
<glyph unicode="8" horiz-adv-x="1153" d="M76 391v6q0 129 55 211t160 135q-172 111 -172 314v8q0 168 128 278.5t331 110.5q202 0 330 -110t128 -279v-8q0 -201 -174 -314q68 -38 113 -80.5t73.5 -108.5t28.5 -151v-8q0 -191 -139.5 -303t-359.5 -112t-361 112.5t-141 298.5zM365 416q0 -87 58.5 -140t154.5 -53 t154.5 53t58.5 140v4q0 87 -60 138.5t-153 51.5q-94 0 -153.5 -51t-59.5 -139v-4zM397 1034q0 -83 50.5 -133.5t130.5 -50.5q79 0 128.5 50.5t49.5 133.5v2q0 78 -50 127t-128 49q-80 0 -130.5 -49t-50.5 -127v-2z" />
<glyph unicode="9" horiz-adv-x="1193" d="M90 950v6q0 219 140 360.5t354 141.5q116 0 199.5 -33.5t152.5 -103.5q81 -82 123.5 -211.5t42.5 -339.5v-12q0 -374 -150 -578.5t-422 -204.5q-221 0 -405 148l143 233q133 -108 267 -108q65 0 115 28t80 76.5t46.5 105t20.5 120.5q-113 -89 -262 -89q-197 0 -321 120.5 t-124 340.5zM381 967q0 -105 57 -166.5t156 -61.5q97 0 153 62t56 164v4q0 105 -57 167t-156 62q-97 0 -153 -61.5t-56 -165.5v-4z" />
<glyph unicode=":" horiz-adv-x="565" d="M123 0v315h317v-315h-317zM123 782v316h317v-316h-317z" />
<glyph unicode=";" horiz-adv-x="565" d="M59 -211q104 15 151.5 70.5t39.5 140.5h-127v315h317v-264q0 -368 -356 -383zM123 782v316h317v-316h-317z" />
<glyph unicode="&#x3c;" horiz-adv-x="1153" d="M115 588v266l891 422v-289l-605 -264l605 -264v-293z" />
<glyph unicode="=" horiz-adv-x="1153" d="M119 340v272h913v-272h-913zM119 829v273h913v-273h-913z" />
<glyph unicode="&#x3e;" horiz-adv-x="1153" d="M147 166v289l605 264l-605 264v293l891 -422v-266z" />
<glyph unicode="?" horiz-adv-x="978" d="M25 1260q187 190 434 190q208 0 332 -110.5t124 -299.5v-2q0 -316 -354 -401l-22 -162h-197l-39 340l10 10q310 26 310 203v4q0 69 -47 108.5t-127 39.5q-137 0 -256 -123zM279 0v315h317v-315h-317z" />
<glyph unicode="@" horiz-adv-x="1798" d="M92 526q0 185 63.5 355.5t173 297.5t266 203t331.5 76q162 0 308 -63t248 -167t162 -241.5t60 -284.5q0 -256 -108.5 -411.5t-280.5 -155.5q-107 0 -176.5 38t-104.5 97q-113 -133 -272 -133q-136 0 -226 95t-90 255q0 148 57.5 276.5t153 203.5t203.5 75q156 0 242 -139 l20 111l230 -37l-95 -541q-8 -39 -8 -86q0 -55 33 -87t92 -32q102 0 173 132.5t71 341.5q0 131 -52.5 253t-143 214t-221 147t-277.5 55q-157 0 -297 -69.5t-237 -185.5t-153.5 -272t-56.5 -325q-1 -216 91 -388.5t257.5 -269.5t374.5 -97q129 0 234 29t209 91l40 -67 q-219 -135 -487 -135q-171 0 -320.5 63.5t-256.5 174t-168.5 267t-61.5 336.5zM686 524q0 -88 38 -138t110 -50q67 0 122 55q42 44 69.5 115t27.5 143q0 84 -38 134.5t-110 50.5q-70 0 -123 -56q-39 -39 -67.5 -112.5t-28.5 -141.5z" />
<glyph unicode="A" horiz-adv-x="1380" d="M35 0l514 1442h282l515 -1442h-308l-106 311h-494l-104 -311h-299zM528 573h314l-156 467z" />
<glyph unicode="B" horiz-adv-x="1280" d="M143 0v1434h533q250 0 375 -125q96 -101 96 -244v-6q0 -209 -195 -314q124 -48 190 -128t66 -214v-10q0 -190 -139.5 -291.5t-378.5 -101.5h-547zM432 262h266q102 0 159.5 43t57.5 125v2q0 78 -57.5 122t-165.5 44h-260v-336zM432 848h207q101 0 158 41t57 121v2 q0 77 -52.5 118t-148.5 41h-221v-323z" />
<glyph unicode="C" horiz-adv-x="1267" d="M92 707v18q0 214 83 380.5t230.5 257.5t335.5 91q151 0 261 -49t200 -141l-178 -230q-141 144 -293 144q-147 0 -240.5 -125t-93.5 -332v-6q0 -209 96 -334t242 -125q82 0 150 36.5t145 113.5l178 -211q-104 -107 -216.5 -161t-268.5 -54q-283 0 -457 199.5t-174 527.5z " />
<glyph unicode="D" horiz-adv-x="1380" d="M143 0v1434h463q310 0 497 -195t187 -512v-18q0 -317 -187 -513t-497 -196h-463zM440 268h164q172 0 275.5 116.5t103.5 326.5v10q0 210 -103.5 327t-275.5 117h-164v-897z" />
<glyph unicode="E" horiz-adv-x="1165" d="M143 0v1434h924v-269h-629v-309h553v-268h-553v-320h637v-268h-932z" />
<glyph unicode="F" horiz-adv-x="1134" d="M143 0v1434h924v-273h-627v-321h551v-273h-551v-567h-297z" />
<glyph unicode="G" horiz-adv-x="1376" d="M92 707v18q0 209 86 376t239 260t345 93q147 0 257.5 -41t211.5 -127l-176 -231q-65 60 -133.5 91.5t-163.5 31.5q-155 0 -258 -127t-103 -324v-16q0 -215 105 -338t268 -123q133 0 213 59v254h-260v258h543v-663q-238 -178 -510 -178q-144 0 -266 51t-210.5 143.5 t-138 230t-49.5 302.5z" />
<glyph unicode="H" horiz-adv-x="1351" d="M143 0v1434h297v-576h471v576h297v-1434h-297v584h-471v-584h-297z" />
<glyph unicode="I" horiz-adv-x="604" d="M154 0v1434h297v-1434h-297z" />
<glyph unicode="J" horiz-adv-x="991" d="M18 164l181 209q98 -113 202 -113q78 0 121 52t43 159v963h299v-977q0 -234 -123 -357q-118 -118 -329 -118q-125 0 -225.5 50t-168.5 132z" />
<glyph unicode="K" horiz-adv-x="1296" d="M143 0v1434h297v-619l469 619h351l-482 -609l502 -825h-348l-359 590l-133 -168v-422h-297z" />
<glyph unicode="L" horiz-adv-x="1075" d="M143 0v1434h297v-1162h580v-272h-877z" />
<glyph unicode="M" horiz-adv-x="1546" d="M143 0v1434h312l319 -582l316 582h313v-1434h-291v915l-338 -591h-6l-336 587v-911h-289z" />
<glyph unicode="N" horiz-adv-x="1398" d="M143 0v1434h273l549 -836v836h290v-1434h-254l-567 866v-866h-291z" />
<glyph unicode="O" horiz-adv-x="1480" d="M92 702v25q0 212 83 379t231 259.5t335 92.5q188 0 336 -92t230 -258t82 -377v-24q0 -211 -83 -378.5t-231.5 -260.5t-335.5 -93q-188 0 -335.5 92t-229.5 257.5t-82 377.5zM397 711q0 -209 96.5 -335t247.5 -126t245.5 124.5t94.5 334.5v14q0 210 -95.5 335.5 t-246.5 125.5q-153 0 -247.5 -124.5t-94.5 -334.5v-14z" />
<glyph unicode="P" horiz-adv-x="1196" d="M143 0v1434h478q242 0 383 -132t141 -360v-4q0 -121 -41.5 -216.5t-114.5 -156.5t-170 -94t-211 -35h-168v-436h-297zM440 702h166q113 0 176.5 64t63.5 166v2q0 112 -62.5 171.5t-181.5 59.5h-162v-463z" />
<glyph unicode="Q" horiz-adv-x="1484" d="M92 702v25q0 212 83 379t231 259.5t335 92.5q188 0 336 -92t230 -258t82 -377v-24q0 -242 -113 -426l143 -125l-178 -197l-141 131q-155 -115 -361 -115q-188 0 -335.5 92t-229.5 257.5t-82 377.5zM397 709q0 -216 97 -338.5t254 -122.5q81 0 143 33l-199 176l176 196 l183 -170q30 92 30 222v20q0 209 -95.5 334t-246.5 125q-153 0 -247.5 -123t-94.5 -332v-20z" />
<glyph unicode="R" horiz-adv-x="1284" d="M143 0v1434h539q251 0 389 -138q121 -121 121 -331v-9q0 -156 -71 -262.5t-195 -161.5l305 -532h-340l-264 471h-187v-471h-297zM440 733h219q112 0 173 58t61 157v2q0 106 -62.5 160.5t-177.5 54.5h-213v-432z" />
<glyph unicode="S" horiz-adv-x="1126" d="M39 193l176 219q185 -162 356 -162q85 0 135 38.5t50 102.5v2q0 57 -49 98t-197 97q-84 32 -141.5 60t-112.5 66t-87 81t-51.5 102t-19.5 131v4q0 187 130.5 303.5t338.5 116.5q269 0 463 -176l-166 -225q-162 133 -305 133q-76 0 -121 -34.5t-45 -90.5v-2 q0 -61 53 -102.5t220 -110.5q200 -78 292.5 -173.5t92.5 -254.5v-4q0 -196 -134.5 -313t-347.5 -117q-142 0 -278.5 52t-251.5 159z" />
<glyph unicode="T" horiz-adv-x="1130" d="M57 1159v275h1016v-275h-360v-1159h-295v1159h-361z" />
<glyph unicode="U" horiz-adv-x="1341" d="M125 557v877h297v-879q0 -149 66 -226t184 -77t184 75.5t66 221.5v885h295v-871q0 -289 -146.5 -437.5t-402.5 -148.5q-254 0 -398.5 148t-144.5 432z" />
<glyph unicode="V" horiz-adv-x="1310" d="M35 1434h321l303 -988l304 988h313l-483 -1442h-275z" />
<glyph unicode="W" horiz-adv-x="1976" d="M45 1434h313l242 -945l262 949h258l264 -949l240 945h307l-409 -1442h-273l-262 911l-262 -911h-270z" />
<glyph unicode="X" horiz-adv-x="1292" d="M49 0l424 729l-405 705h338l243 -465l248 465h330l-410 -701l426 -733h-338l-262 492l-264 -492h-330z" />
<glyph unicode="Y" horiz-adv-x="1263" d="M16 1434h336l283 -564l285 564h327l-467 -865v-569h-297v565z" />
<glyph unicode="Z" horiz-adv-x="1226" d="M104 0v227l654 942h-633v265h999v-228l-653 -942h653v-264h-1020z" />
<glyph unicode="[" horiz-adv-x="843" d="M158 -266v1700h583v-224h-311v-1253h311v-223h-583z" />
<glyph unicode="\" horiz-adv-x="950" d="M-20 1616h245l772 -1860h-247z" />
<glyph unicode="]" horiz-adv-x="843" d="M102 -43h312v1253h-312v224h584v-1700h-584v223z" />
<glyph unicode="^" horiz-adv-x="1024" d="M150 1016l258 414h208l258 -414h-204l-160 246l-160 -246h-200z" />
<glyph unicode="_" horiz-adv-x="1138" d="M-4 -98h1147v-224h-1147v224z" />
<glyph unicode="`" horiz-adv-x="1024" d="M252 1438l244 112l213 -344h-209z" />
<glyph unicode="a" horiz-adv-x="1060" d="M59 313v13q0 175 103.5 262.5t279.5 87.5q117 0 230 -45v33q0 94 -54 143t-153 49q-109 0 -252 -61l-80 227q176 88 375 88q221 0 334 -113q112 -112 112 -331v-666h-284v119q-107 -139 -285 -139q-140 0 -233 89t-93 244zM340 330q0 -66 38 -100.5t103 -36.5h7 q80 0 133 45q55 47 55 122v93q-73 34 -162 34q-81 0 -127.5 -39.5t-46.5 -113.5v-4z" />
<glyph unicode="b" horiz-adv-x="1200" d="M117 0v1479h291v-533q118 172 297 172q83 0 157 -34.5t132.5 -100.5t93 -174t34.5 -244v-33q0 -136 -34 -243.5t-92.5 -173.5t-132.5 -100.5t-158 -34.5q-177 0 -297 161v-141h-291zM403 539q0 -137 61.5 -221.5t153.5 -84.5t152.5 84.5t60.5 221.5v20q0 137 -60.5 221 t-152.5 84q-93 0 -154 -84t-61 -221v-20z" />
<glyph unicode="c" horiz-adv-x="991" d="M74 532v25q0 245 143 403t365 158q114 0 199 -36.5t159 -110.5l-158 -211q-46 48 -90.5 73t-105.5 25q-99 0 -161.5 -85.5t-62.5 -219.5v-8q0 -139 61.5 -224t168.5 -85q60 0 105.5 25t93.5 75l153 -193q-73 -81 -162 -124.5t-211 -43.5q-218 0 -357.5 157t-139.5 400z " />
<glyph unicode="d" horiz-adv-x="1200" d="M78 532v33q0 136 34 244t93 174t133 100.5t158 34.5q100 0 170 -44t127 -118v523h290v-1479h-290v152q-118 -172 -297 -172q-83 0 -157 34.5t-133 100.5t-93.5 173.5t-34.5 243.5zM369 539q0 -137 60.5 -221.5t152.5 -84.5t153.5 84.5t61.5 221.5v20q0 137 -61 221 t-154 84q-92 0 -152.5 -84t-60.5 -221v-20z" />
<glyph unicode="e" horiz-adv-x="1091" d="M72 537v18q0 244 136 403.5t343 159.5q92 0 168.5 -29t131.5 -81.5t92.5 -125.5t56 -160.5t18.5 -186.5q0 -52 -2 -95h-656q18 -107 81 -164t157 -57q117 0 229 109l150 -176q-159 -177 -391 -177q-222 0 -368 155t-146 407zM358 633h379q-9 116 -57 181t-129 65 q-80 0 -130.5 -64.5t-62.5 -181.5z" />
<glyph unicode="f" horiz-adv-x="686" d="M51 852v238h111v73q0 164 82 246t239 82q97 0 181 -25v-239q-63 18 -107 18q-106 0 -106 -112v-43h213v-238h-211v-852h-291v852h-111z" />
<glyph unicode="g" horiz-adv-x="1200" d="M78 598v6q0 126 33.5 226t90.5 161.5t130 94t155 32.5q103 0 173.5 -43t132.5 -119v142h290v-897q0 -255 -125 -383q-134 -131 -417 -131q-220 0 -418 92l90 225q144 -80 311 -80q137 0 204 64t67 196v70q-63 -82 -134.5 -127t-173.5 -45q-83 0 -156 32.5t-130 95 t-90 162.5t-33 226zM369 600q0 -123 59.5 -195.5t153.5 -72.5t154.5 73.5t60.5 194.5v2q0 120 -60.5 193t-154.5 73q-93 0 -153 -73t-60 -193v-2z" />
<glyph unicode="h" d="M117 0v1479h291v-529q56 78 121.5 123t160.5 45q153 0 238.5 -99t85.5 -271v-748h-291v662q0 95 -40.5 144.5t-115.5 49.5q-74 0 -116.5 -49.5t-42.5 -144.5v-662h-291z" />
<glyph unicode="i" horiz-adv-x="546" d="M121 1214v265h303v-265h-303zM127 0v1098h291v-1098h-291z" />
<glyph unicode="j" horiz-adv-x="546" d="M-27 -78q36 -4 52 -4q104 0 104 117v1063h291v-1088q0 -325 -324 -325q-58 0 -123 10v227zM123 1214v265h303v-265h-303z" />
<glyph unicode="k" horiz-adv-x="1064" d="M117 0v1479h291v-787l299 406h340l-349 -436l357 -662h-332l-225 440l-90 -116v-324h-291z" />
<glyph unicode="l" horiz-adv-x="546" d="M127 0v1479h291v-1479h-291z" />
<glyph unicode="m" horiz-adv-x="1712" d="M117 0v1098h291v-148q57 79 123 123.5t161 44.5q93 0 162.5 -42.5t108.5 -117.5q133 160 311 160q150 0 237.5 -95t87.5 -273v-750h-288v662q0 94 -39.5 144t-112.5 50t-114 -50t-41 -144v-662h-291v662q0 95 -39 144.5t-111 49.5q-73 0 -114 -50t-41 -144v-662h-291z " />
<glyph unicode="n" d="M117 0v1098h291v-148q56 78 121.5 123t160.5 45q153 0 238.5 -99t85.5 -271v-748h-291v662q0 95 -40.5 144.5t-115.5 49.5q-74 0 -116.5 -49.5t-42.5 -144.5v-662h-291z" />
<glyph unicode="o" horiz-adv-x="1181" d="M74 535v22q0 244 147.5 402.5t370.5 158.5q224 0 369 -157t145 -402v-22q0 -244 -146.5 -403t-369.5 -159q-224 0 -370 157.5t-146 402.5zM360 541q0 -134 64.5 -224t167.5 -90q105 0 166 87.5t61 224.5v14q0 136 -63 224.5t-166 88.5q-106 0 -168 -87t-62 -224v-14z" />
<glyph unicode="p" horiz-adv-x="1200" d="M117 -309v1407h291v-152q118 172 297 172q83 0 157 -34.5t132.5 -100.5t93 -174t34.5 -244v-33q0 -136 -34 -243.5t-92.5 -173.5t-132.5 -100.5t-158 -34.5q-177 0 -297 161v-450h-291zM403 539q0 -137 61.5 -221.5t153.5 -84.5t152.5 84.5t60.5 221.5v20 q0 137 -60.5 221t-152.5 84q-93 0 -154 -84t-61 -221v-20z" />
<glyph unicode="q" horiz-adv-x="1200" d="M78 532v33q0 136 34 244t93 174t133 100.5t158 34.5q100 0 170 -44t127 -118v142h290v-1407h-290v461q-118 -172 -297 -172q-83 0 -157 34.5t-133 100.5t-93.5 173.5t-34.5 243.5zM369 539q0 -137 60.5 -221.5t152.5 -84.5t153.5 84.5t61.5 221.5v20q0 137 -61 221 t-154 84q-92 0 -152.5 -84t-60.5 -221v-20z" />
<glyph unicode="r" horiz-adv-x="751" d="M117 0v1098h291v-195q85 214 278 214q9 0 19 -1v-315h-13q-136 0 -210 -85.5t-74 -254.5v-461h-291z" />
<glyph unicode="s" horiz-adv-x="897" d="M33 131l127 205q159 -123 293 -123q58 0 87 23.5t29 60.5v4q0 27 -24 50t-50 36t-91 40q-23 10 -35 15q-53 23 -90.5 43t-78 49.5t-64.5 62t-40 78t-16 99.5v4q0 155 106.5 245.5t270.5 90.5q193 0 362 -119l-117 -209q-147 95 -249 95q-51 0 -79 -22t-28 -56v-4 q0 -43 75 -85q28 -16 124 -59q70 -33 114.5 -60t89 -66.5t66 -89.5t21.5 -113v-4q0 -164 -108 -253t-279 -89q-104 0 -213 37t-203 114z" />
<glyph unicode="t" horiz-adv-x="743" d="M51 852v246h111v280h291v-280h217v-246h-217v-518q0 -94 90 -94q63 0 125 30v-231q-98 -57 -215 -57q-138 0 -214.5 66t-76.5 226v578h-111z" />
<glyph unicode="u" d="M111 350v748h288v-662q0 -95 40.5 -144.5t115.5 -49.5t117.5 49.5t42.5 144.5v662h291v-1098h-291v147q-53 -77 -120 -122t-161 -45q-154 0 -238.5 99t-84.5 271z" />
<glyph unicode="v" horiz-adv-x="1079" d="M35 1098h303l205 -729l207 729h294l-368 -1106h-270z" />
<glyph unicode="w" horiz-adv-x="1554" d="M41 1098h293l149 -649l170 653h248l172 -656l152 652h288l-294 -1106h-269l-174 651l-178 -651h-266z" />
<glyph unicode="x" horiz-adv-x="1052" d="M37 0l328 559l-316 539h307l172 -322l174 322h302l-318 -535l330 -563h-309l-183 342l-184 -342h-303z" />
<glyph unicode="y" horiz-adv-x="1079" d="M35 1098h303l207 -727l200 727h295l-360 -1112q-56 -166 -129 -234.5t-201 -68.5q-124 0 -235 65l80 217q65 -37 118 -37q69 0 95 70z" />
<glyph unicode="z" horiz-adv-x="983" d="M78 0v205l483 655h-467v238h815v-205l-485 -655h485v-238h-831z" />
<glyph unicode="{" horiz-adv-x="894" d="M84 475v225h51q106 0 155.5 45.5t49.5 149.5q0 29 -10.5 96t-10.5 96q0 156 103 249.5t346 127.5l45 -196q-132 -29 -180.5 -76t-48.5 -137q0 -34 11 -101.5t11 -101.5q0 -103 -58 -169.5t-165 -94.5q107 -28 165 -94.5t58 -169.5q0 -34 -11 -101.5t-11 -101.5 q0 -90 48.5 -137t180.5 -76l-45 -197q-243 34 -346 127.5t-103 249.5q0 29 10.5 96.5t10.5 96.5q0 104 -49.5 149t-155.5 45h-51z" />
<glyph unicode="|" horiz-adv-x="655" d="M213 -244v1860h229v-1860h-229z" />
<glyph unicode="}" horiz-adv-x="894" d="M80 -92q133 29 182 76t49 137q0 34 -11 101.5t-11 101.5q0 103 58 169.5t165 94.5q-107 28 -165 94.5t-58 169.5q0 34 11 101.5t11 101.5q0 90 -49 137t-182 76l47 196q243 -34 345.5 -127.5t102.5 -249.5q0 -29 -10 -96t-10 -96q0 -104 49.5 -149.5t155.5 -45.5h49v-225 h-49q-106 0 -155.5 -45t-49.5 -149q0 -29 10 -97t10 -96q0 -156 -102.5 -249.5t-345.5 -127.5z" />
<glyph unicode="~" horiz-adv-x="958" d="M92 522q61 264 232 264q76 0 172 -47q81 -34 112 -34q40 0 65 23.5t44 76.5l149 -47q-61 -266 -231 -266q-76 0 -172 47q-82 36 -113 36q-39 0 -59.5 -22.5t-42.5 -77.5z" />
<glyph unicode="&#xa1;" horiz-adv-x="602" d="M129 0v41l92 917h158l94 -917v-41h-344zM141 1118v316h318v-316h-318z" />
<glyph unicode="&#xa2;" horiz-adv-x="1019" d="M82 713v22q0 235 135 391.5t344 167.5l21 152h198l-24 -174q112 -34 198 -123l-155 -209q-51 51 -86 68l-82 -592q84 10 174 94l151 -191q-72 -76 -157 -117.5t-197 -45.5l-22 -168h-199l27 198q-147 55 -236.5 196.5t-89.5 330.5zM367 723q0 -177 88 -256l77 559 q-76 -24 -120.5 -103t-44.5 -196v-4z" />
<glyph unicode="&#xa3;" horiz-adv-x="1140" d="M100 0v195l140 51v309h-138v250h138v186q0 232 118 344q119 119 316 119q250 0 399 -197l-207 -192q-40 54 -81.5 81.5t-96.5 27.5q-61 0 -100 -39q-49 -46 -49 -152v-178h385v-250h-385v-297h524v-258h-963z" />
<glyph unicode="&#xa5;" horiz-adv-x="1232" d="M27 1434h329l262 -547l269 547h319l-377 -693h248v-213h-319v-125h319v-213h-319v-190h-285v190h-317v213h317v125h-317v213h243z" />
<glyph unicode="&#xa7;" horiz-adv-x="1159" d="M90 713v4q0 167 178 239q-80 71 -80 185v4q0 141 106 225t286 84q247 0 407 -154l-143 -178q-124 107 -256 107q-58 0 -90.5 -21t-32.5 -55v-2q0 -36 41.5 -62.5t169.5 -64.5q210 -58 301.5 -124.5t91.5 -178.5v-4q0 -168 -178 -240q80 -71 80 -184v-4q0 -141 -105 -225 t-284 -84q-251 0 -410 153l143 178q126 -106 256 -106q60 0 92.5 20.5t32.5 55.5v2q0 37 -43 63t-170 64q-209 58 -301 125t-92 178zM350 754q0 -41 43 -69t137 -58q124 -41 175 -41q44 0 75 26t31 66v2q0 41 -43.5 69t-138.5 58q-124 41 -174 41q-44 0 -74.5 -26t-30.5 -66 v-2z" />
<glyph unicode="&#xa8;" horiz-adv-x="1024" d="M182 1208v258h275v-258h-275zM567 1208v258h275v-258h-275z" />
<glyph unicode="&#xa9;" horiz-adv-x="1513" d="M92 705v22q0 152 51.5 287.5t140 233t212 154t262.5 56.5q187 0 339 -96t238 -263t86 -370v-22q0 -203 -87 -371t-239.5 -264.5t-338.5 -96.5t-338.5 96t-239 263.5t-86.5 370.5zM174 702q0 -182 74.5 -329t208 -231.5t299.5 -84.5q125 0 233.5 50t185 136.5t120.5 206.5 t44 257v24q0 182 -74 329t-207.5 231.5t-299.5 84.5t-300 -85t-209 -233.5t-75 -330.5v-25zM420 717v12q0 180 100 292t256 112q84 0 143 -25t111 -74l-98 -129q-76 72 -156 72t-132 -67.5t-52 -180.5v-8q0 -115 51.5 -181.5t134.5 -66.5q46 0 82 18.5t76 57.5l98 -117 q-106 -115 -264 -115q-156 0 -253 110.5t-97 289.5z" />
<glyph unicode="&#xaa;" horiz-adv-x="714" d="M90 584v123h514v-123h-514zM98 1001v9q0 96 56.5 144t154.5 48q60 0 127 -24v18q0 51 -30.5 77.5t-86.5 26.5q-63 0 -137 -34l-47 125q96 49 211 49q117 0 180 -60q64 -61 64 -184v-367h-156v66q-60 -76 -158 -76q-78 0 -128 48.5t-50 133.5zM252 1010q0 -35 21 -54.5 t57 -19.5q48 0 78 25.5t30 66.5v51q-52 21 -90 21q-45 0 -70.5 -21t-25.5 -61v-8z" />
<glyph unicode="&#xab;" horiz-adv-x="1206" d="M74 541v16l342 455l202 -105l-231 -356l234 -356l-205 -109zM578 541v16l342 455l202 -105l-231 -356l233 -356l-204 -109z" />
<glyph unicode="&#xad;" horiz-adv-x="792" d="M96 494v282h600v-282h-600z" />
<glyph unicode="&#xae;" horiz-adv-x="720" d="M33 1090v12q0 151 94 253.5t233 102.5t233.5 -102.5t94.5 -253.5v-10q0 -151 -95 -254t-233 -103q-139 0 -233 102t-94 253zM76 1090q0 -133 80.5 -223.5t203.5 -90.5q122 0 203.5 91.5t81.5 224.5v10q0 134 -81.5 224.5t-203.5 90.5t-203 -91t-81 -224v-12zM221 911v381 h152q69 0 109 -31.5t40 -93.5v-2q0 -84 -71 -114l81 -140h-108l-70 119h-37v-119h-96zM317 1110h50q57 0 57 49q0 51 -57 51h-50v-100z" />
<glyph unicode="&#xaf;" horiz-adv-x="1024" d="M184 1214v199h656v-199h-656z" />
<glyph unicode="&#xb0;" horiz-adv-x="858" d="M113 1094v8q0 147 92.5 245.5t222.5 98.5q132 0 226 -98.5t94 -245.5v-8q0 -147 -94 -245.5t-226 -98.5q-130 0 -222.5 98.5t-92.5 245.5zM274 1096q0 -84 43.5 -137.5t110.5 -53.5q68 0 112 53.5t44 137.5v4q0 86 -44 139t-112 53q-67 0 -110.5 -53.5t-43.5 -138.5v-4z " />
<glyph unicode="&#xb1;" horiz-adv-x="1153" d="M119 0v246h913v-246h-913zM119 725v260l327 -2l-2 330h265l-2 -330l327 2v-260l-327 2l2 -330h-265l2 330z" />
<glyph unicode="&#xb2;" horiz-adv-x="722" d="M88 1530q63 74 126.5 109.5t152.5 35.5q117 0 187.5 -62.5t70.5 -166.5q0 -69 -30 -123.5t-108 -128.5l-170 -158h310v-153h-535v147l240 227q67 64 92 98t25 72q0 40 -28 64.5t-69 24.5q-39 0 -74.5 -23t-82.5 -72z" />
<glyph unicode="&#xb3;" horiz-adv-x="722" d="M72 969l90 131q89 -78 184 -78q46 0 77.5 26t31.5 68q0 46 -39 70t-109 24h-69l-21 111l186 182h-284v154h497v-131l-202 -191q96 -10 155.5 -64t59.5 -149q0 -116 -76.5 -187t-204.5 -71q-151 0 -276 105z" />
<glyph unicode="&#xb4;" horiz-adv-x="1024" d="M307 1206l213 344l244 -112l-248 -232h-209z" />
<glyph unicode="&#xb6;" horiz-adv-x="1069" d="M59 948v4q0 154 70 264t190 164t277 54h328v-1434h-297v467h-35q-113 2 -209 33t-169 89.5t-114 150.5t-41 208z" />
<glyph unicode="&#xb7;" horiz-adv-x="557" d="M119 477v316h317v-316h-317z" />
<glyph unicode="&#xb8;" horiz-adv-x="1024" d="M262 -227l182 268h201l-139 -367z" />
<glyph unicode="&#xb9;" horiz-adv-x="587" d="M74 1577l221 90h129v-784h-174v602l-139 -55z" />
<glyph unicode="&#xba;" horiz-adv-x="714" d="M80 1122v15q0 134 78.5 220.5t199.5 86.5q120 0 198.5 -86t78.5 -219v-15q0 -134 -80 -220.5t-199 -86.5q-120 0 -198 86t-78 219zM94 584v123h524v-123h-524zM238 1126q0 -75 32.5 -123.5t87.5 -48.5q54 0 86.5 48t32.5 122v11q0 75 -33 122.5t-88 47.5t-86.5 -46.5 t-31.5 -121.5v-11z" />
<glyph unicode="&#xbb;" horiz-adv-x="1206" d="M82 190l233 357l-233 356l203 109l344 -455v-16l-344 -455zM584 903l204 109l345 -455v-16l-345 -455l-202 104l233 357z" />
<glyph unicode="&#xbc;" horiz-adv-x="1492" d="M74 1354l221 90h129v-785h-174v601l-139 -56zM215 0l457 752l397 682h158l-457 -752l-397 -682h-158zM823 313l322 469h188v-489h92v-139h-92v-158h-157v158h-340zM969 291h211v305h-4z" />
<glyph unicode="&#xbd;" horiz-adv-x="1492" d="M74 1354l221 90h129v-785h-174v601l-139 -56zM193 0l456 752l398 682h157l-456 -752l-398 -682h-157zM864 647q63 74 126.5 110t152.5 36q117 0 187.5 -63t70.5 -167q0 -69 -29.5 -124t-107.5 -128l-170 -157h309v-154h-535v147l240 228q67 64 92 98t25 72q0 40 -28 64 t-69 24q-39 0 -74.5 -23t-82.5 -71z" />
<glyph unicode="&#xbe;" horiz-adv-x="1626" d="M72 745l90 129q92 -77 184 -77q46 0 77.5 26.5t31.5 69.5q0 46 -39 70t-109 24h-69l-21 111l186 180h-284v156h497v-131l-202 -191q97 -11 156 -65t59 -150q0 -116 -76.5 -186t-204.5 -70q-157 0 -276 104zM344 0l457 752l397 682h158l-457 -752l-397 -682h-158zM963 313 l321 469h189v-489h92v-139h-92v-158h-158v158h-340zM1108 291h211v305h-4z" />
<glyph unicode="&#xbf;" horiz-adv-x="978" d="M61 393v2q0 316 355 402l24 161h195l41 -340l-10 -10q-310 -26 -310 -202v-5q0 -69 47 -108t127 -39q137 0 256 123l168 -203q-190 -190 -434 -190q-209 0 -334 110t-125 299zM383 1118v316h315v-316h-315z" />
<glyph unicode="&#xc0;" horiz-adv-x="1380" d="M35 0l514 1442h282l515 -1442h-308l-106 311h-494l-104 -311h-299zM332 1737l250 112l227 -303h-221zM528 573h314l-156 467z" />
<glyph unicode="&#xc1;" horiz-adv-x="1380" d="M35 0l514 1442h282l515 -1442h-308l-106 311h-494l-104 -311h-299zM528 573h314l-156 467zM567 1546l228 303l249 -112l-256 -191h-221z" />
<glyph unicode="&#xc2;" horiz-adv-x="1380" d="M35 0l514 1442h282l515 -1442h-308l-106 311h-494l-104 -311h-299zM326 1540l229 285h266l230 -285h-226l-139 111l-139 -111h-221zM528 573h314l-156 467z" />
<glyph unicode="&#xc3;" horiz-adv-x="1380" d="M35 0l514 1442h282l515 -1442h-308l-106 311h-494l-104 -311h-299zM313 1575q32 134 84 199t142 65q74 0 178 -45q87 -31 110 -31q36 0 57.5 22t41.5 73l157 -48q-32 -135 -83.5 -199.5t-141.5 -64.5q-62 0 -176 43q-83 33 -113 33q-37 0 -57.5 -21t-40.5 -71zM528 573 h314l-156 467z" />
<glyph unicode="&#xc4;" horiz-adv-x="1380" d="M35 0l514 1442h282l515 -1442h-308l-106 311h-494l-104 -311h-299zM348 1548v248h275v-248h-275zM528 573h314l-156 467zM754 1548v248h274v-248h-274z" />
<glyph unicode="&#xc5;" horiz-adv-x="1380" d="M35 0l483 1368q-59 59 -59 143q0 92 67.5 151.5t163.5 59.5q97 0 164.5 -59.5t67.5 -151.5q0 -83 -62 -145l486 -1366h-308l-106 311h-494l-104 -311h-299zM528 573h314l-156 467zM575 1511q0 -44 32.5 -74t82.5 -30t82.5 30t32.5 74q0 45 -32.5 76t-82.5 31t-82.5 -31 t-32.5 -76z" />
<glyph unicode="&#xc6;" horiz-adv-x="1843" d="M12 0l656 1434h1077v-269h-594v-309h518v-268h-518v-320h602v-268h-897v311h-405l-140 -311h-299zM569 573h287v592h-31z" />
<glyph unicode="&#xc7;" horiz-adv-x="1267" d="M92 707v18q0 214 83 380.5t230.5 257.5t335.5 91q151 0 261 -49t200 -141l-178 -230q-141 144 -293 144q-147 0 -240.5 -125t-93.5 -332v-6q0 -209 96 -334t242 -125q82 0 150 36.5t145 113.5l178 -211q-95 -99 -196.5 -151.5t-235.5 -61.5l-117 -308l-243 99l151 225 q-218 51 -346.5 240.5t-128.5 468.5z" />
<glyph unicode="&#xc8;" horiz-adv-x="1165" d="M143 0v1434h924v-269h-629v-309h553v-268h-553v-320h637v-268h-932zM252 1724l250 113l227 -303h-221z" />
<glyph unicode="&#xc9;" horiz-adv-x="1165" d="M143 0v1434h924v-269h-629v-309h553v-268h-553v-320h637v-268h-932zM485 1534l228 303l250 -113l-256 -190h-222z" />
<glyph unicode="&#xca;" horiz-adv-x="1165" d="M143 0v1434h924v-269h-629v-309h553v-268h-553v-320h637v-268h-932zM246 1534l229 285h266l230 -285h-226l-139 111l-139 -111h-221z" />
<glyph unicode="&#xcb;" horiz-adv-x="1165" d="M143 0v1434h924v-269h-629v-309h553v-268h-553v-320h637v-268h-932zM268 1536v248h275v-248h-275zM674 1536v248h274v-248h-274z" />
<glyph unicode="&#xcc;" horiz-adv-x="604" d="M-53 1724l250 113l227 -303h-221zM154 0v1434h297v-1434h-297z" />
<glyph unicode="&#xcd;" horiz-adv-x="604" d="M154 0v1434h297v-1434h-297zM182 1534l228 303l249 -113l-256 -190h-221z" />
<glyph unicode="&#xce;" horiz-adv-x="604" d="M-59 1534l229 285h266l230 -285h-226l-139 111l-139 -111h-221zM154 0v1434h297v-1434h-297z" />
<glyph unicode="&#xcf;" horiz-adv-x="604" d="M-37 1536v248h275v-248h-275zM154 0v1434h297v-1434h-297zM369 1536v248h274v-248h-274z" />
<glyph unicode="&#xd0;" horiz-adv-x="1429" d="M61 590v262h129v582h463q308 0 497 -195.5t189 -511.5v-18q0 -208 -85 -369t-241.5 -250.5t-359.5 -89.5h-463v590h-129zM487 268h164q174 0 277.5 116.5t103.5 326.5v10q0 210 -104 327t-277 117h-164v-313h248v-262h-248v-322z" />
<glyph unicode="&#xd1;" horiz-adv-x="1398" d="M143 0v1434h273l549 -836v836h290v-1434h-254l-567 866v-866h-291zM322 1563q32 135 83.5 199.5t141.5 64.5q74 0 178 -45q87 -31 111 -31q36 0 57 21.5t41 72.5l158 -47q-32 -134 -84 -199t-142 -65q-62 0 -176 43q-82 33 -112 33q-37 0 -58 -21t-41 -71z" />
<glyph unicode="&#xd2;" horiz-adv-x="1480" d="M92 702v25q0 212 83 379t231 259.5t335 92.5q188 0 336 -92t230 -258t82 -377v-24q0 -211 -83 -378.5t-231.5 -260.5t-335.5 -93q-188 0 -335.5 92t-229.5 257.5t-82 377.5zM381 1737l250 112l227 -303h-221zM397 711q0 -209 96.5 -335t247.5 -126t245.5 124.5 t94.5 334.5v14q0 210 -95.5 335.5t-246.5 125.5q-153 0 -247.5 -124.5t-94.5 -334.5v-14z" />
<glyph unicode="&#xd3;" horiz-adv-x="1480" d="M92 702v25q0 212 83 379t231 259.5t335 92.5q188 0 336 -92t230 -258t82 -377v-24q0 -211 -83 -378.5t-231.5 -260.5t-335.5 -93q-188 0 -335.5 92t-229.5 257.5t-82 377.5zM397 711q0 -209 96.5 -335t247.5 -126t245.5 124.5t94.5 334.5v14q0 210 -95.5 335.5 t-246.5 125.5q-153 0 -247.5 -124.5t-94.5 -334.5v-14zM618 1546l228 303l250 -112l-256 -191h-222z" />
<glyph unicode="&#xd4;" horiz-adv-x="1480" d="M92 702v25q0 212 83 379t231 259.5t335 92.5q188 0 336 -92t230 -258t82 -377v-24q0 -211 -83 -378.5t-231.5 -260.5t-335.5 -93q-188 0 -335.5 92t-229.5 257.5t-82 377.5zM377 1546l229 285h266l230 -285h-225l-140 111l-139 -111h-221zM397 711q0 -209 96.5 -335 t247.5 -126t245.5 124.5t94.5 334.5v14q0 210 -95.5 335.5t-246.5 125.5q-153 0 -247.5 -124.5t-94.5 -334.5v-14z" />
<glyph unicode="&#xd5;" horiz-adv-x="1480" d="M92 702v25q0 212 83 379t231 259.5t335 92.5q188 0 336 -92t230 -258t82 -377v-24q0 -211 -83 -378.5t-231.5 -260.5t-335.5 -93q-188 0 -335.5 92t-229.5 257.5t-82 377.5zM362 1575q32 134 84 199t142 65q74 0 178 -45q87 -31 111 -31q36 0 57 22t41 73l158 -48 q-32 -134 -84 -199t-142 -65q-62 0 -176 43q-82 33 -113 33q-37 0 -57.5 -21t-40.5 -71zM397 711q0 -209 96.5 -335t247.5 -126t245.5 124.5t94.5 334.5v14q0 210 -95.5 335.5t-246.5 125.5q-153 0 -247.5 -124.5t-94.5 -334.5v-14z" />
<glyph unicode="&#xd6;" horiz-adv-x="1480" d="M92 702v25q0 212 83 379t231 259.5t335 92.5q188 0 336 -92t230 -258t82 -377v-24q0 -211 -83 -378.5t-231.5 -260.5t-335.5 -93q-188 0 -335.5 92t-229.5 257.5t-82 377.5zM397 711q0 -209 96.5 -335t247.5 -126t245.5 124.5t94.5 334.5v14q0 210 -95.5 335.5 t-246.5 125.5q-153 0 -247.5 -124.5t-94.5 -334.5v-14zM399 1548v248h275v-248h-275zM805 1548v248h274v-248h-274z" />
<glyph unicode="&#xd7;" horiz-adv-x="1153" d="M113 428l290 291l-290 293l188 178l277 -291l276 291l186 -176l-290 -291l290 -293l-188 -178l-277 291l-276 -291z" />
<glyph unicode="&#xd8;" horiz-adv-x="1480" d="M84 -10l162 223q-154 196 -154 489v25q0 211 82.5 378t231 260t335.5 93t338 -96l64 82h254l-164 -223q156 -199 156 -490v-24q0 -211 -83 -378.5t-231.5 -260.5t-335.5 -93t-340 97l-61 -82h-254zM393 709q0 -137 41 -240l484 664q-79 57 -179 57q-155 0 -250.5 -125.5 t-95.5 -337.5v-18zM561 301q79 -57 180 -57q154 0 250 126t96 337v18q0 139 -43 240z" />
<glyph unicode="&#xd9;" horiz-adv-x="1341" d="M125 557v877h297v-879q0 -149 66 -226t184 -77t184 75.5t66 221.5v885h295v-871q0 -289 -146.5 -437.5t-402.5 -148.5q-254 0 -398.5 148t-144.5 432zM313 1724l250 113l228 -303h-222z" />
<glyph unicode="&#xda;" horiz-adv-x="1341" d="M125 557v877h297v-879q0 -149 66 -226t184 -77t184 75.5t66 221.5v885h295v-871q0 -289 -146.5 -437.5t-402.5 -148.5q-254 0 -398.5 148t-144.5 432zM549 1534l227 303l250 -113l-256 -190h-221z" />
<glyph unicode="&#xdb;" horiz-adv-x="1341" d="M125 557v877h297v-879q0 -149 66 -226t184 -77t184 75.5t66 221.5v885h295v-871q0 -289 -146.5 -437.5t-402.5 -148.5q-254 0 -398.5 148t-144.5 432zM307 1534l230 285h266l229 -285h-225l-139 111l-140 -111h-221z" />
<glyph unicode="&#xdc;" horiz-adv-x="1341" d="M125 557v877h297v-879q0 -149 66 -226t184 -77t184 75.5t66 221.5v885h295v-871q0 -289 -146.5 -437.5t-402.5 -148.5q-254 0 -398.5 148t-144.5 432zM330 1536v248h274v-248h-274zM735 1536v248h275v-248h-275z" />
<glyph unicode="&#xdd;" horiz-adv-x="1263" d="M16 1434h336l283 -564l285 564h327l-467 -865v-569h-297v565zM510 1534l227 303l250 -113l-256 -190h-221z" />
<glyph unicode="&#xde;" horiz-adv-x="1204" d="M143 0v1434h297v-205h181q242 0 383 -132t141 -360v-4q0 -121 -41.5 -217.5t-114.5 -158t-170 -94t-211 -32.5h-168v-231h-297zM440 498h166q113 0 176.5 63.5t63.5 165.5v2q0 112 -62.5 170.5t-181.5 58.5h-162v-460z" />
<glyph unicode="&#xdf;" horiz-adv-x="1132" d="M117 0v1028q0 215 122 339t336 124q194 0 305 -108t111 -271v-8q0 -119 -46.5 -196.5t-129.5 -135.5q244 -110 244 -356v-8q0 -198 -136 -308t-374 -104v225q109 8 167 58.5t58 140.5v2q0 83 -61 137t-164 72v194q160 104 160 252v2q0 76 -39.5 121t-104.5 45 q-74 0 -116.5 -55.5t-42.5 -151.5v-1038h-289z" />
<glyph unicode="&#xe0;" horiz-adv-x="1060" d="M59 313v13q0 175 103.5 262.5t279.5 87.5q117 0 230 -45v33q0 94 -54 143t-153 49q-109 0 -252 -61l-80 227q176 88 375 88q221 0 334 -113q112 -112 112 -331v-666h-284v119q-107 -139 -285 -139q-140 0 -233 89t-93 244zM190 1438l244 112l213 -344h-209zM340 330 q0 -66 38 -100.5t103 -36.5q85 -2 140 45t55 122v93q-73 34 -162 34q-81 0 -127.5 -39.5t-46.5 -113.5v-4z" />
<glyph unicode="&#xe1;" horiz-adv-x="1060" d="M59 313v13q0 175 103.5 262.5t279.5 87.5q117 0 230 -45v33q0 94 -54 143t-153 49q-109 0 -252 -61l-80 227q176 88 375 88q221 0 334 -113q112 -112 112 -331v-666h-284v119q-107 -139 -285 -139q-140 0 -233 89t-93 244zM340 330q0 -66 38 -100.5t103 -36.5 q85 -2 140 45t55 122v93q-73 34 -162 34q-81 0 -127.5 -39.5t-46.5 -113.5v-4zM414 1206l213 344l243 -112l-247 -232h-209z" />
<glyph unicode="&#xe2;" horiz-adv-x="1060" d="M59 313v13q0 175 103.5 262.5t279.5 87.5q117 0 230 -45v33q0 94 -54 143t-153 49q-109 0 -252 -61l-80 227q176 88 375 88q221 0 334 -113q112 -112 112 -331v-666h-284v119q-107 -139 -285 -139q-140 0 -233 89t-93 244zM176 1206l223 310h263l223 -310h-215l-142 131 l-141 -131h-211zM340 330q0 -66 38 -100.5t103 -36.5q85 -2 140 45t55 122v93q-73 34 -162 34q-81 0 -127.5 -39.5t-46.5 -113.5v-4z" />
<glyph unicode="&#xe3;" horiz-adv-x="1060" d="M59 313v13q0 175 103.5 262.5t279.5 87.5q117 0 230 -45v33q0 94 -54 143t-153 49q-109 0 -252 -61l-80 227q176 88 375 88q221 0 334 -113q112 -112 112 -331v-666h-284v119q-107 -139 -285 -139q-140 0 -233 89t-93 244zM162 1233q33 136 82.5 200t138.5 64 q56 0 168 -43q84 -35 111 -35q37 0 57.5 21.5t40.5 72.5l155 -45q-33 -136 -82.5 -200t-138.5 -64q-62 0 -168 45q-7 3 -24.5 9.5t-25.5 9.5t-20.5 7t-22 5.5t-17.5 1.5q-38 0 -58.5 -21t-40.5 -73zM340 330q0 -66 38 -100.5t103 -36.5q85 -2 140 45t55 122v93 q-73 34 -162 34q-81 0 -127.5 -39.5t-46.5 -113.5v-4z" />
<glyph unicode="&#xe4;" horiz-adv-x="1060" d="M59 313v13q0 175 103.5 262.5t279.5 87.5q117 0 230 -45v33q0 94 -54 143t-153 49q-109 0 -252 -61l-80 227q176 88 375 88q221 0 334 -113q112 -112 112 -331v-666h-284v119q-107 -139 -285 -139q-140 0 -233 89t-93 244zM201 1208v258h274v-258h-274zM340 330 q0 -66 38 -100.5t103 -36.5q85 -2 140 45t55 122v93q-73 34 -162 34q-81 0 -127.5 -39.5t-46.5 -113.5v-4zM586 1208v258h274v-258h-274z" />
<glyph unicode="&#xe5;" horiz-adv-x="1060" d="M59 313v13q0 175 103.5 262.5t279.5 87.5q117 0 230 -45v33q0 94 -54 143t-153 49q-109 0 -252 -61l-80 227q176 88 375 88q221 0 334 -113q112 -112 112 -331v-666h-284v119q-107 -139 -285 -139q-140 0 -233 89t-93 244zM303 1421q0 93 66.5 158.5t160.5 65.5 t161 -64.5t67 -159.5q0 -93 -67 -158t-161 -65t-160.5 65t-66.5 158zM340 330q0 -66 38 -100.5t103 -36.5q85 -2 140 45t55 122v93q-73 34 -162 34q-81 0 -127.5 -39.5t-46.5 -113.5v-4zM412 1421q0 -51 34 -86t84 -35t84.5 35t34.5 86t-35 87t-84 36t-83.5 -36t-34.5 -87z " />
<glyph unicode="&#xe6;" horiz-adv-x="1685" d="M59 319v7q0 175 103.5 262.5t279.5 87.5q117 0 230 -45v33q0 93 -53 142.5t-152 49.5q-112 0 -254 -65l-80 231q176 88 375 88q226 0 330 -133q125 141 313 141q112 0 200.5 -45t145 -124t86 -184.5t29.5 -229.5q0 -52 -2 -95h-656q19 -108 81 -164.5t157 -56.5 q126 0 229 109l150 -176q-157 -177 -391 -177q-116 0 -213.5 47t-163.5 134q-172 -176 -383 -176q-161 0 -261 91t-100 248zM340 330q0 -63 41 -99t104 -36q126 0 228 114q-26 80 -31 144q-76 34 -166 34q-83 0 -129.5 -39t-46.5 -112v-6zM952 633h379q-9 116 -57 181 t-129 65q-80 0 -130.5 -64.5t-62.5 -181.5z" />
<glyph unicode="&#xe7;" horiz-adv-x="991" d="M74 532v25q0 245 143 403t365 158q114 0 199 -36.5t159 -110.5l-158 -211q-46 48 -90.5 73t-105.5 25q-99 0 -161.5 -85.5t-62.5 -219.5v-8q0 -139 61.5 -224t168.5 -85q60 0 105.5 25t93.5 75l153 -193q-137 -150 -323 -166l-115 -303l-244 99l154 227 q-156 50 -249 193.5t-93 338.5z" />
<glyph unicode="&#xe8;" horiz-adv-x="1091" d="M72 537v18q0 244 136 403.5t343 159.5q92 0 168.5 -29t131.5 -81.5t92.5 -125.5t56 -160.5t18.5 -186.5q0 -52 -2 -95h-656q18 -107 81 -164t157 -57q117 0 229 109l150 -176q-159 -177 -391 -177q-222 0 -368 155t-146 407zM207 1438l244 112l213 -344h-209zM358 633 h379q-9 116 -57 181t-129 65q-80 0 -130.5 -64.5t-62.5 -181.5z" />
<glyph unicode="&#xe9;" horiz-adv-x="1091" d="M72 537v18q0 244 136 403.5t343 159.5q92 0 168.5 -29t131.5 -81.5t92.5 -125.5t56 -160.5t18.5 -186.5q0 -52 -2 -95h-656q18 -107 81 -164t157 -57q117 0 229 109l150 -176q-159 -177 -391 -177q-222 0 -368 155t-146 407zM358 633h379q-9 116 -57 181t-129 65 q-80 0 -130.5 -64.5t-62.5 -181.5zM430 1206l213 344l244 -112l-248 -232h-209z" />
<glyph unicode="&#xea;" horiz-adv-x="1091" d="M72 537v18q0 244 136 403.5t343 159.5q92 0 168.5 -29t131.5 -81.5t92.5 -125.5t56 -160.5t18.5 -186.5q0 -52 -2 -95h-656q18 -107 81 -164t157 -57q117 0 229 109l150 -176q-159 -177 -391 -177q-222 0 -368 155t-146 407zM193 1206l223 310h262l223 -310h-215 l-141 131l-142 -131h-210zM358 633h379q-9 116 -57 181t-129 65q-80 0 -130.5 -64.5t-62.5 -181.5z" />
<glyph unicode="&#xeb;" horiz-adv-x="1091" d="M72 537v18q0 244 136 403.5t343 159.5q92 0 168.5 -29t131.5 -81.5t92.5 -125.5t56 -160.5t18.5 -186.5q0 -52 -2 -95h-656q18 -107 81 -164t157 -57q117 0 229 109l150 -176q-159 -177 -391 -177q-222 0 -368 155t-146 407zM217 1208v258h275v-258h-275zM358 633h379 q-9 116 -57 181t-129 65q-80 0 -130.5 -64.5t-62.5 -181.5zM602 1208v258h275v-258h-275z" />
<glyph unicode="&#xec;" horiz-adv-x="546" d="M-68 1438l244 112l213 -344h-209zM127 0v1098h291v-1098h-291z" />
<glyph unicode="&#xed;" horiz-adv-x="546" d="M127 0v1098h291v-1098h-291zM160 1206l213 344l243 -112l-247 -232h-209z" />
<glyph unicode="&#xee;" horiz-adv-x="546" d="M-80 1206l223 310h263l223 -310h-215l-142 131l-141 -131h-211zM127 0v1098h291v-1098h-291z" />
<glyph unicode="&#xef;" horiz-adv-x="546" d="M-55 1208v258h274v-258h-274zM127 0v1098h291v-1098h-291zM330 1208v258h274v-258h-274z" />
<glyph unicode="&#xf0;" horiz-adv-x="1181" d="M74 545v26q0 226 123 374.5t297 148.5q62 0 109.5 -16t103.5 -52q-48 84 -140 186l-219 -59l-55 158l141 39q-66 61 -151 129h366l58 -54l211 58l53 -158l-135 -39q268 -324 268 -680v-20q0 -271 -140 -441t-378 -170q-222 0 -367 160t-145 410zM360 541 q0 -136 63.5 -225t166.5 -89q106 0 167.5 87t61.5 223v12q0 136 -64 223.5t-167 87.5q-105 0 -166.5 -85.5t-61.5 -221.5v-12z" />
<glyph unicode="&#xf1;" d="M117 0v1098h291v-148q56 78 121.5 123t160.5 45q153 0 238.5 -99t85.5 -271v-748h-291v662q0 95 -40.5 144.5t-115.5 49.5q-74 0 -116.5 -49.5t-42.5 -144.5v-662h-291zM197 1233q33 136 82.5 200t138.5 64q56 0 168 -43q84 -35 110 -35q38 0 58.5 21.5t40.5 72.5 l155 -45q-33 -136 -82.5 -200t-138.5 -64q-62 0 -168 45q-7 3 -24.5 9.5t-25.5 9.5t-20.5 7t-22 5.5t-17.5 1.5q-38 0 -58.5 -21t-40.5 -73z" />
<glyph unicode="&#xf2;" horiz-adv-x="1181" d="M74 535v22q0 244 147.5 402.5t370.5 158.5q224 0 369 -157t145 -402v-22q0 -244 -146.5 -403t-369.5 -159q-224 0 -370 157.5t-146 402.5zM250 1438l244 112l213 -344h-209zM360 541q0 -134 64.5 -224t167.5 -90q105 0 166 87.5t61 224.5v14q0 136 -63 224.5t-166 88.5 q-106 0 -168 -87t-62 -224v-14z" />
<glyph unicode="&#xf3;" horiz-adv-x="1181" d="M74 535v22q0 244 147.5 402.5t370.5 158.5q224 0 369 -157t145 -402v-22q0 -244 -146.5 -403t-369.5 -159q-224 0 -370 157.5t-146 402.5zM360 541q0 -134 64.5 -224t167.5 -90q105 0 166 87.5t61 224.5v14q0 136 -63 224.5t-166 88.5q-106 0 -168 -87t-62 -224v-14z M473 1206l213 344l244 -112l-248 -232h-209z" />
<glyph unicode="&#xf4;" horiz-adv-x="1181" d="M74 535v22q0 244 147.5 402.5t370.5 158.5q224 0 369 -157t145 -402v-22q0 -244 -146.5 -403t-369.5 -159q-224 0 -370 157.5t-146 402.5zM236 1206l223 310h262l223 -310h-215l-141 131l-142 -131h-210zM360 541q0 -134 64.5 -224t167.5 -90q105 0 166 87.5t61 224.5v14 q0 136 -63 224.5t-166 88.5q-106 0 -168 -87t-62 -224v-14z" />
<glyph unicode="&#xf5;" horiz-adv-x="1181" d="M74 535v22q0 244 147.5 402.5t370.5 158.5q224 0 369 -157t145 -402v-22q0 -244 -146.5 -403t-369.5 -159q-224 0 -370 157.5t-146 402.5zM221 1233q33 136 82.5 200t138.5 64q56 0 168 -43q84 -35 111 -35q37 0 57.5 21.5t40.5 72.5l156 -45q-33 -136 -82.5 -200 t-138.5 -64q-62 0 -168 45q-89 33 -111 33q-38 0 -58 -20.5t-40 -73.5zM360 541q0 -134 64.5 -224t167.5 -90q105 0 166 87.5t61 224.5v14q0 136 -63 224.5t-166 88.5q-106 0 -168 -87t-62 -224v-14z" />
<glyph unicode="&#xf6;" horiz-adv-x="1181" d="M74 535v22q0 244 147.5 402.5t370.5 158.5q224 0 369 -157t145 -402v-22q0 -244 -146.5 -403t-369.5 -159q-224 0 -370 157.5t-146 402.5zM260 1208v258h275v-258h-275zM360 541q0 -134 64.5 -224t167.5 -90q105 0 166 87.5t61 224.5v14q0 136 -63 224.5t-166 88.5 q-106 0 -168 -87t-62 -224v-14zM645 1208v258h275v-258h-275z" />
<glyph unicode="&#xf7;" horiz-adv-x="1153" d="M113 596v250h927v-250h-927zM430 172v279h293v-279h-293zM430 991v279h293v-279h-293z" />
<glyph unicode="&#xf8;" horiz-adv-x="1181" d="M45 -12l141 184q-112 146 -112 363v22q0 244 147.5 402.5t370.5 158.5q142 0 262 -71l49 61h232l-142 -186q113 -155 113 -363v-22q0 -244 -146.5 -403t-369.5 -159q-146 0 -264 70l-47 -57h-234zM352 541q0 -68 19 -133l329 432q-53 32 -110 32q-111 0 -174.5 -88.5 t-63.5 -228.5v-14zM479 254q47 -33 113 -33q110 0 173.5 89.5t63.5 228.5v14q0 65 -20 133z" />
<glyph unicode="&#xf9;" d="M111 350v748h288v-662q0 -95 40.5 -144.5t115.5 -49.5t117.5 49.5t42.5 144.5v662h291v-1098h-291v147q-53 -77 -120 -122t-161 -45q-154 0 -238.5 99t-84.5 271zM217 1438l244 112l213 -344h-209z" />
<glyph unicode="&#xfa;" d="M111 350v748h288v-662q0 -95 40.5 -144.5t115.5 -49.5t117.5 49.5t42.5 144.5v662h291v-1098h-291v147q-53 -77 -120 -122t-161 -45q-154 0 -238.5 99t-84.5 271zM440 1206l213 344l244 -112l-248 -232h-209z" />
<glyph unicode="&#xfb;" d="M111 350v748h288v-662q0 -95 40.5 -144.5t115.5 -49.5t117.5 49.5t42.5 144.5v662h291v-1098h-291v147q-53 -77 -120 -122t-161 -45q-154 0 -238.5 99t-84.5 271zM203 1206l223 310h262l223 -310h-215l-141 131l-141 -131h-211z" />
<glyph unicode="&#xfc;" d="M111 350v748h288v-662q0 -95 40.5 -144.5t115.5 -49.5t117.5 49.5t42.5 144.5v662h291v-1098h-291v147q-53 -77 -120 -122t-161 -45q-154 0 -238.5 99t-84.5 271zM227 1208v258h275v-258h-275zM612 1208v258h275v-258h-275z" />
<glyph unicode="&#xfd;" horiz-adv-x="1079" d="M35 1098h303l207 -727l200 727h295l-360 -1112q-56 -166 -129 -234.5t-201 -68.5q-124 0 -235 65l80 217q65 -37 118 -37q69 0 95 70zM422 1206l213 344l244 -112l-248 -232h-209z" />
<glyph unicode="&#xfe;" horiz-adv-x="1200" d="M117 -309v1788h291v-533q118 172 297 172q83 0 157 -34.5t132.5 -100.5t93 -174t34.5 -244v-33q0 -136 -34 -243.5t-92.5 -173.5t-132.5 -100.5t-158 -34.5q-177 0 -297 161v-450h-291zM403 539q0 -137 61.5 -221.5t153.5 -84.5t152.5 84.5t60.5 221.5v20 q0 137 -60.5 221t-152.5 84q-93 0 -154 -84t-61 -221v-20z" />
<glyph unicode="&#xff;" horiz-adv-x="1079" d="M35 1098h303l207 -727l200 727h295l-360 -1112q-56 -166 -129 -234.5t-201 -68.5q-124 0 -235 65l80 217q65 -37 118 -37q69 0 95 70zM209 1208v258h274v-258h-274zM594 1208v258h274v-258h-274z" />
<glyph unicode="&#x152;" horiz-adv-x="1886" d="M92 707v18q0 208 84.5 369t240.5 250.5t359 89.5h1012v-269h-594v-309h518v-268h-518v-320h602v-268h-1020q-308 0 -496 195.5t-188 511.5zM397 713q0 -210 103.5 -327.5t275.5 -117.5h123v897h-121q-174 0 -277.5 -116t-103.5 -326v-10z" />
<glyph unicode="&#x153;" horiz-adv-x="1830" d="M74 535v22q0 242 147.5 401.5t364.5 159.5q108 0 200 -45.5t156 -126.5q65 81 154 126.5t194 45.5q92 0 168.5 -29t131.5 -81.5t92.5 -125.5t56 -160.5t18.5 -186.5q0 -9 -4 -95h-653q20 -108 81.5 -164.5t155.5 -56.5q127 0 230 109l149 -176q-157 -177 -391 -177 q-117 0 -216 46.5t-169 132.5q-64 -85 -157.5 -132t-204.5 -47q-139 0 -254 71t-182.5 199.5t-67.5 289.5zM360 541q0 -134 63 -224t163 -90q102 0 160.5 87.5t58.5 224.5v14q0 136 -60.5 224.5t-160.5 88.5q-103 0 -163.5 -87.5t-60.5 -223.5v-14zM1096 633h381 q-9 115 -57.5 180.5t-129.5 65.5q-79 0 -129.5 -64.5t-64.5 -181.5z" />
<glyph unicode="&#x178;" horiz-adv-x="1263" d="M16 1434h336l283 -564l285 564h327l-467 -865v-569h-297v565zM291 1536v248h274v-248h-274zM696 1536v248h275v-248h-275z" />
<glyph unicode="&#x2c6;" horiz-adv-x="1024" d="M158 1206l223 310h262l223 -310h-215l-141 131l-141 -131h-211z" />
<glyph unicode="&#x2dc;" horiz-adv-x="1024" d="M135 1233q33 136 82.5 200t138.5 64q56 0 168 -43q84 -35 111 -35q37 0 57.5 21.5t40.5 72.5l156 -45q-33 -136 -82.5 -200t-138.5 -64q-62 0 -168 45q-89 33 -111 33q-38 0 -58 -20.5t-40 -73.5z" />
<glyph unicode="&#x2000;" horiz-adv-x="929" />
<glyph unicode="&#x2001;" horiz-adv-x="1858" />
<glyph unicode="&#x2002;" horiz-adv-x="929" />
<glyph unicode="&#x2003;" horiz-adv-x="1858" />
<glyph unicode="&#x2004;" horiz-adv-x="619" />
<glyph unicode="&#x2005;" horiz-adv-x="464" />
<glyph unicode="&#x2006;" horiz-adv-x="309" />
<glyph unicode="&#x2007;" horiz-adv-x="309" />
<glyph unicode="&#x2008;" horiz-adv-x="232" />
<glyph unicode="&#x2009;" horiz-adv-x="371" />
<glyph unicode="&#x200a;" horiz-adv-x="103" />
<glyph unicode="&#x2010;" horiz-adv-x="792" d="M96 494v282h600v-282h-600z" />
<glyph unicode="&#x2011;" horiz-adv-x="792" d="M96 494v282h600v-282h-600z" />
<glyph unicode="&#x2012;" horiz-adv-x="792" d="M96 494v282h600v-282h-600z" />
<glyph unicode="&#x2013;" horiz-adv-x="1038" d="M96 498v274h846v-274h-846z" />
<glyph unicode="&#x2014;" horiz-adv-x="1703" d="M96 498v274h1512v-274h-1512z" />
<glyph unicode="&#x2018;" horiz-adv-x="548" d="M106 797v264q0 364 357 383l26 -121q-105 -15 -152.5 -70.5t-39.5 -140.5h127v-315h-318z" />
<glyph unicode="&#x2019;" horiz-adv-x="548" d="M59 907q105 15 153 70.5t40 140.5h-127v316h317v-265q0 -368 -358 -383z" />
<glyph unicode="&#x201a;" horiz-adv-x="563" d="M53 -211q110 14 159.5 70t41.5 141h-127v315h317v-264q0 -188 -91.5 -281t-272.5 -102z" />
<glyph unicode="&#x201c;" horiz-adv-x="1030" d="M106 797v264q0 364 357 383l26 -121q-105 -15 -152.5 -70.5t-39.5 -140.5h127v-315h-318zM588 797v264q0 187 90.5 280.5t267.5 102.5l25 -121q-105 -15 -153 -70.5t-40 -140.5h127v-315h-317z" />
<glyph unicode="&#x201d;" horiz-adv-x="1030" d="M59 907q105 15 153 70.5t40 140.5h-127v316h317v-265q0 -368 -358 -383zM541 907q105 15 152.5 70.5t39.5 140.5h-127v316h318v-265q0 -367 -359 -383z" />
<glyph unicode="&#x201e;" horiz-adv-x="1050" d="M53 -211q110 14 159.5 70t41.5 141h-127v315h317v-264q0 -188 -91.5 -281t-272.5 -102zM541 -211q110 14 159 70t41 141h-127v315h318v-264q0 -187 -91.5 -280.5t-273.5 -102.5z" />
<glyph unicode="&#x2022;" horiz-adv-x="933" d="M184 715v14q0 130 81.5 214.5t201.5 84.5q119 0 201 -84.5t82 -214.5v-14q0 -129 -82 -214t-201 -85q-120 0 -201.5 85t-81.5 214z" />
<glyph unicode="&#x2026;" horiz-adv-x="1656" d="M119 0v309h313v-309h-313zM672 0v309h311v-309h-311zM1225 0v309h311v-309h-311z" />
<glyph unicode="&#x202f;" horiz-adv-x="371" />
<glyph unicode="&#x2039;" horiz-adv-x="702" d="M74 541v16l342 455l202 -105l-231 -356l234 -356l-205 -109z" />
<glyph unicode="&#x203a;" horiz-adv-x="702" d="M82 190l233 357l-233 356l203 109l344 -455v-16l-344 -455z" />
<glyph unicode="&#x205f;" horiz-adv-x="464" />
<glyph unicode="&#x20ac;" horiz-adv-x="1267" d="M80 451v200h139v56v16q0 45 2 68h-141v200h172q56 218 197.5 342.5t343.5 124.5q139 0 234 -52.5t177 -154.5l-198 -188q-45 60 -95.5 92.5t-119.5 32.5q-79 0 -140 -50t-94 -147h330v-200h-367v-64v-16v-60h367v-200h-332q65 -205 242 -205q68 0 118.5 33t102.5 98 l188 -180q-83 -108 -183 -165t-232 -57q-206 0 -347.5 125t-195.5 351h-168z" />
<glyph unicode="&#x2122;" horiz-adv-x="1255" d="M47 1307v127h453v-127h-158v-508h-139v508h-156zM610 799v635h150l137 -250l139 250h144v-635h-133v415l-148 -268h-8l-146 268v-415h-135z" />
<glyph unicode="&#x25fc;" horiz-adv-x="1095" d="M0 0v1096h1096v-1096h-1096z" />
</font>
</defs>
</svg>
